<svg width="90" height="35" class="logo-blue">
    <path id="Caminho_656" data-name="Caminho 656" d="M61.048,15.4a1.6,1.6,0,0,0-1.6-1.6H56.392a1.6,1.6,0,0,0-1.6,1.6v8.163A11.505,11.505,0,1,0,49.941,45.3a11.147,11.147,0,0,0,4.877-1.321A1.6,1.6,0,0,0,56.392,45.3h3.056a1.6,1.6,0,0,0,1.6-1.6V33.526h0V15.4ZM49.539,39.046a5.252,5.252,0,1,1,5.252-5.252,5.258,5.258,0,0,1-5.252,5.252" transform="translate(-17.487 -13.802)" fill="#221f52"></path>
    <path id="Caminho_657" data-name="Caminho 657" d="M67.171,15.4a1.6,1.6,0,0,1,1.6-1.6h3.056a1.6,1.6,0,0,1,1.6,1.6v8.163A11.505,11.505,0,1,1,78.278,45.3,11.147,11.147,0,0,1,73.4,43.976,1.6,1.6,0,0,1,71.827,45.3H68.771a1.6,1.6,0,0,1-1.6-1.6V33.526h0ZM78.68,39.046a5.252,5.252,0,1,0-5.252-5.252,5.258,5.258,0,0,0,5.252,5.252" transform="translate(-20.732 -13.802)" fill="#221f52"></path>
    <path id="Caminho_658" data-name="Caminho 658" d="M33.533,44.829,23.087,34.381,33.532,23.936a1.633,1.633,0,0,0,0-2.31l-2.115-2.115a1.633,1.633,0,0,0-2.31,0L17.545,31.074c-.013.012-.027.023-.04.036L15.39,33.224a1.639,1.639,0,0,0,0,2.314l2.115,2.115.04.036L29.109,49.254a1.634,1.634,0,0,0,2.31,0l2.114-2.114a1.632,1.632,0,0,0,0-2.31" transform="translate(-14.912 -14.384)" fill="#221f52"></path>
    <path id="Caminho_659" data-name="Caminho 659" d="M95.176,44.829l10.447-10.448L95.177,23.936a1.633,1.633,0,0,1,0-2.31l2.115-2.115a1.633,1.633,0,0,1,2.31,0l11.563,11.563c.013.012.027.023.04.036l2.115,2.114a1.639,1.639,0,0,1,0,2.314L111.2,37.653l-.04.036L99.6,49.254a1.634,1.634,0,0,1-2.31,0L95.176,47.14a1.632,1.632,0,0,1,0-2.31" transform="translate(-23.797 -14.384)" fill="#221f52"></path>
</svg>